<svg width="24" height="24" viewBox="0 0 24 24" fill="none" xmlns="http://www.w3.org/2000/svg">
<rect width="24" height="24" fill="#E5E5E5"/>
<g id="&#208;&#154;&#208;&#176;&#209;&#128;&#209;&#130;&#208;&#190;&#209;&#135;&#208;&#186;&#208;&#176;">
<rect width="1440" height="1024" transform="translate(-580 -468)" fill="black"/>
<g id="Group 15">
<g id="&#208;&#176;&#208;&#180;&#209;&#128;&#208;&#181;&#209;&#129; &#208;&#183;&#208;&#176;&#208;&#191;&#208;&#190;&#208;&#187;&#208;&#189;&#208;&#181;&#208;&#189;&#208;&#184;&#208;&#181; ">
<g id="Rectangle 235" filter="url(#filter0_d_0_1)">
<rect x="-192" y="-220" width="664" height="576" rx="8" fill="white"/>
</g>
<g id="&#208;&#179;&#208;&#190;&#209;&#128;&#208;&#190;&#208;&#180;">
<g id="Group 10">
<g id="Right Icons 2">
<g id="calendar">
<path id="Vector" d="M17.9999 5.14282H5.99993C5.05316 5.14282 4.28564 5.91033 4.28564 6.85711V18.8571C4.28564 19.8039 5.05316 20.5714 5.99993 20.5714H17.9999C18.9467 20.5714 19.7142 19.8039 19.7142 18.8571V6.85711C19.7142 5.91033 18.9467 5.14282 17.9999 5.14282Z" stroke="#A3A3A3" stroke-width="2" stroke-linecap="round" stroke-linejoin="round"/>
<path id="Vector_2" d="M15.4285 3.42859V6.85716" stroke="#A3A3A3" stroke-width="2" stroke-linecap="round" stroke-linejoin="round"/>
<path id="Vector_3" d="M8.57153 3.42859V6.85716" stroke="#A3A3A3" stroke-width="2" stroke-linecap="round" stroke-linejoin="round"/>
<path id="Vector_4" d="M4.28564 10.2858H19.7142" stroke="#A3A3A3" stroke-width="2" stroke-linecap="round" stroke-linejoin="round"/>
</g>
</g>
<rect id="Rectangle" opacity="0.5" x="-167.75" y="-11.75" width="199.5" height="47.5" rx="7.75" stroke="#AEAEAE" stroke-width="0.5"/>
</g>
</g>
</g>
</g>
</g>
<defs>
<filter id="filter0_d_0_1" x="-216" y="-238" width="712" height="624" filterUnits="userSpaceOnUse" color-interpolation-filters="sRGB">
<feFlood flood-opacity="0" result="BackgroundImageFix"/>
<feColorMatrix in="SourceAlpha" type="matrix" values="0 0 0 0 0 0 0 0 0 0 0 0 0 0 0 0 0 0 127 0" result="hardAlpha"/>
<feOffset dy="6"/>
<feGaussianBlur stdDeviation="12"/>
<feColorMatrix type="matrix" values="0 0 0 0 0 0 0 0 0 0 0 0 0 0 0 0 0 0 0.1 0"/>
<feBlend mode="normal" in2="BackgroundImageFix" result="effect1_dropShadow_0_1"/>
<feBlend mode="normal" in="SourceGraphic" in2="effect1_dropShadow_0_1" result="shape"/>
</filter>
</defs>
</svg>
